<?xml version="1.0" encoding="UTF-8"?>
<svg xmlns="http://www.w3.org/2000/svg" xmlns:xlink="http://www.w3.org/1999/xlink" width="128px" height="128px" viewBox="0 0 128 128" version="1.1">
<g id="surface1">
<path style=" stroke:none;fill-rule:nonzero;fill:rgb(0%,0%,0%);fill-opacity:1;" d="M 58.183594 2.382812 C 47.472656 3.609375 36.992188 7.824219 28.390625 14.34375 C 12.3125 26.558594 3.335938 45.417969 4.085938 65.453125 C 4.289062 70.371094 4.738281 73.65625 5.867188 78.246094 C 6.972656 82.707031 8.152344 85.816406 10.40625 90.40625 C 17.027344 103.847656 28.289062 114.355469 42.082031 119.976562 C 49.804688 123.136719 56.851562 124.488281 65.453125 124.464844 C 75.308594 124.4375 83.863281 122.457031 92.3125 118.246094 C 104.023438 112.402344 113.003906 103.773438 119.222656 92.3125 C 122.734375 85.917969 124.839844 79.449219 126.042969 71.472656 C 126.644531 67.511719 126.644531 59.183594 126.042969 55.046875 C 124.164062 41.855469 118.46875 30.195312 109.367188 20.765625 C 96.050781 6.921875 77.316406 0.226562 58.183594 2.382812 Z M 73.554688 20.789062 C 80.375 22.195312 85.742188 24.601562 91.210938 28.664062 C 106.910156 40.375 112.703125 61.089844 105.40625 79.371094 C 99.914062 93.140625 87.523438 103.222656 72.828125 105.855469 C 70.570312 106.257812 68.765625 106.40625 65.453125 106.40625 C 60.640625 106.433594 58.507812 106.183594 54.21875 105.054688 C 37.015625 100.539062 24.324219 85.792969 22.292969 67.960938 C 21.894531 64.402344 22.117188 58.558594 22.820312 55.070312 C 26.40625 36.890625 40.527344 23.398438 59.058594 20.4375 C 62.34375 19.914062 70.269531 20.113281 73.554688 20.789062 Z M 73.554688 20.789062 "/>
<path style=" stroke:none;fill-rule:nonzero;fill:rgb(0%,0%,0%);fill-opacity:1;" d="M 60.4375 24 C 58.882812 24.175781 54.546875 25.101562 54.34375 25.304688 C 54.246094 25.40625 54.546875 26.355469 55.046875 27.386719 C 57.101562 31.875 58.183594 36.238281 58.183594 40.175781 C 58.183594 44.214844 57.355469 46.546875 55.273438 48.375 C 51.761719 51.460938 45.667969 50.53125 38.871094 45.867188 C 37.617188 45.015625 35.738281 43.511719 34.707031 42.558594 C 33.203125 41.152344 32.753906 40.851562 32.578125 41.152344 C 28.816406 46.847656 26.53125 53.339844 25.929688 60.011719 L 25.753906 61.96875 L 27.484375 61.769531 C 28.4375 61.667969 31.070312 61.566406 33.355469 61.59375 C 38.246094 61.617188 40.851562 62.117188 43.738281 63.648438 C 47.070312 65.40625 48.652344 67.6875 48.652344 70.796875 C 48.652344 73.804688 47.246094 76.640625 44.164062 79.847656 C 41.929688 82.132812 39.847656 83.785156 36.691406 85.667969 L 34.082031 87.246094 L 35.6875 89.078125 C 37.742188 91.460938 40.675781 93.992188 43.511719 95.875 C 46.167969 97.628906 50.53125 99.8125 51.535156 99.886719 C 52.214844 99.9375 52.238281 99.886719 52.691406 97.804688 C 54.421875 89.929688 57.882812 84.085938 62.042969 82.007812 C 63.273438 81.378906 63.824219 81.253906 65.328125 81.253906 C 66.832031 81.253906 67.386719 81.378906 68.664062 82.007812 C 71.523438 83.460938 74.183594 86.921875 76.113281 91.738281 C 76.992188 93.96875 78.246094 98.433594 78.246094 99.386719 C 78.246094 100.1875 78.898438 100.113281 81.40625 98.984375 C 86.320312 96.828125 91.511719 93.015625 94.847656 89.152344 L 96.550781 87.199219 L 94.621094 86.09375 C 90.207031 83.585938 86.070312 80 84.0625 76.992188 C 80.375 71.5 81.503906 66.484375 87.046875 63.722656 C 90.183594 62.144531 92.0625 61.816406 98.054688 61.816406 C 100.890625 61.816406 103.574219 61.894531 104.023438 61.992188 L 104.878906 62.195312 L 104.703125 60.488281 C 104 53.214844 101.769531 46.644531 98.082031 41.152344 C 97.882812 40.851562 97.53125 41.078125 96.25 42.28125 C 92.039062 46.167969 87.246094 49.003906 83.261719 49.882812 C 81.378906 50.308594 78.898438 50.207031 77.390625 49.628906 C 75.4375 48.902344 73.679688 46.945312 72.953125 44.691406 C 71.597656 40.5 72.652344 33.707031 75.609375 27.183594 L 76.464844 25.328125 L 75.160156 24.953125 C 72.476562 24.199219 69.117188 23.824219 65.203125 23.875 C 63.070312 23.875 60.914062 23.949219 60.4375 24 Z M 69.265625 51.636719 C 72.878906 52.890625 75.636719 55.773438 76.765625 59.484375 C 77.214844 60.941406 77.292969 61.667969 77.191406 63.699219 C 77.089844 65.882812 76.964844 66.382812 76.164062 68.085938 C 73.679688 73.277344 67.863281 76.039062 62.371094 74.609375 C 54.921875 72.675781 51.234375 64.703125 54.546875 57.730469 C 56.074219 54.519531 59.183594 52.039062 62.695312 51.234375 C 64.476562 50.832031 67.460938 51.007812 69.265625 51.636719 Z M 69.265625 51.636719 "/>
<path style=" stroke:none;fill-rule:nonzero;fill:rgb(0%,0%,0%);fill-opacity:1;" d="M 67.5625 53.46875 C 66.308594 54.070312 66.132812 55.875 67.183594 56.953125 C 68.113281 57.882812 69.167969 57.90625 70.195312 57.027344 C 70.820312 56.5 70.972656 56.199219 70.972656 55.398438 C 70.972656 53.644531 69.214844 52.640625 67.5625 53.46875 Z M 67.5625 53.46875 "/>
<path style=" stroke:none;fill-rule:nonzero;fill:rgb(0%,0%,0%);fill-opacity:1;" d="M 57.152344 55.398438 C 56.351562 56.226562 56.226562 57.078125 56.800781 58.15625 C 57.203125 58.984375 57.628906 59.183594 58.832031 59.183594 C 60.039062 59.183594 60.941406 58.257812 60.941406 57.054688 C 60.941406 55.847656 59.8125 54.671875 58.683594 54.671875 C 58.132812 54.671875 57.65625 54.898438 57.152344 55.398438 Z M 57.152344 55.398438 "/>
<path style=" stroke:none;fill-rule:nonzero;fill:rgb(0%,0%,0%);fill-opacity:1;" d="M 64.527344 59.183594 C 61.039062 59.988281 60.339844 64.125 63.273438 66.308594 C 64.25 67.007812 66.433594 67.007812 67.386719 66.308594 C 68.664062 65.355469 69.089844 64.527344 69.089844 62.996094 C 69.089844 61.894531 68.964844 61.367188 68.515625 60.738281 C 67.585938 59.460938 66.03125 58.832031 64.527344 59.183594 Z M 64.527344 59.183594 "/>
<path style=" stroke:none;fill-rule:nonzero;fill:rgb(0%,0%,0%);fill-opacity:1;" d="M 72.601562 62.496094 C 71.800781 62.972656 71.5 63.523438 71.472656 64.527344 C 71.472656 66.609375 73.980469 67.535156 75.335938 65.929688 C 76.136719 64.976562 76.164062 63.949219 75.4375 63.070312 C 74.785156 62.320312 73.355469 62.042969 72.601562 62.496094 Z M 72.601562 62.496094 "/>
<path style=" stroke:none;fill-rule:nonzero;fill:rgb(0%,0%,0%);fill-opacity:1;" d="M 56.527344 64.453125 C 55.148438 65.003906 54.695312 67.183594 55.75 68.136719 C 56.527344 68.863281 57.355469 69.066406 58.207031 68.691406 C 58.960938 68.390625 59.6875 67.335938 59.6875 66.582031 C 59.6875 65.78125 58.933594 64.753906 58.15625 64.476562 C 57.230469 64.152344 57.230469 64.152344 56.527344 64.453125 Z M 56.527344 64.453125 "/>
<path style=" stroke:none;fill-rule:nonzero;fill:rgb(0%,0%,0%);fill-opacity:1;" d="M 65.503906 69.339844 C 64.878906 69.867188 64.703125 70.195312 64.703125 70.945312 C 64.703125 72.628906 66.007812 73.628906 67.636719 73.179688 C 68.539062 72.953125 69.214844 71.925781 69.214844 70.871094 C 69.214844 69.96875 68.238281 68.964844 67.183594 68.816406 C 66.484375 68.691406 66.15625 68.789062 65.503906 69.339844 Z M 65.503906 69.339844 "/>
</g>
</svg>
