<?xml version="1.0" encoding="UTF-8"?>
<svg xmlns="http://www.w3.org/2000/svg" xmlns:xlink="http://www.w3.org/1999/xlink" width="48px" height="48px" viewBox="0 0 48 48" version="1.1">
<g id="surface1">
<path style=" stroke:none;fill-rule:nonzero;fill:rgb(0%,0%,0%);fill-opacity:1;" d="M 21.816406 0.894531 C 17.800781 1.355469 13.871094 2.933594 10.644531 5.378906 C 4.617188 9.960938 1.25 17.03125 1.53125 24.546875 C 1.609375 26.390625 1.777344 27.621094 2.199219 29.339844 C 2.613281 31.015625 3.054688 32.183594 3.902344 33.902344 C 6.386719 38.945312 10.609375 42.882812 15.78125 44.992188 C 18.675781 46.175781 21.320312 46.683594 24.546875 46.675781 C 28.242188 46.664062 31.449219 45.921875 34.617188 44.339844 C 39.007812 42.152344 42.375 38.914062 44.707031 34.617188 C 46.023438 32.21875 46.816406 29.792969 47.265625 26.800781 C 47.492188 25.316406 47.492188 22.195312 47.265625 20.644531 C 46.5625 15.695312 44.425781 11.324219 41.011719 7.785156 C 36.019531 2.59375 28.992188 0.0859375 21.816406 0.894531 Z M 27.582031 7.796875 C 30.140625 8.324219 32.152344 9.226562 34.203125 10.75 C 40.089844 15.140625 42.261719 22.910156 39.527344 29.765625 C 37.46875 34.929688 32.820312 38.707031 27.308594 39.695312 C 26.464844 39.847656 25.785156 39.902344 24.546875 39.902344 C 22.738281 39.914062 21.941406 39.816406 20.332031 39.394531 C 13.882812 37.703125 9.121094 32.171875 8.359375 25.484375 C 8.210938 24.152344 8.292969 21.960938 8.558594 20.652344 C 9.902344 13.832031 15.199219 8.773438 22.148438 7.664062 C 23.378906 7.46875 26.351562 7.542969 27.582031 7.796875 Z M 27.582031 7.796875 "/>
<path style=" stroke:none;fill-rule:nonzero;fill:rgb(0%,0%,0%);fill-opacity:1;" d="M 22.664062 9 C 22.082031 9.066406 20.453125 9.414062 20.378906 9.488281 C 20.339844 9.527344 20.453125 9.882812 20.644531 10.269531 C 21.414062 11.953125 21.816406 13.589844 21.816406 15.066406 C 21.816406 16.578125 21.507812 17.453125 20.726562 18.140625 C 19.410156 19.296875 17.125 18.949219 14.578125 17.199219 C 14.105469 16.882812 13.402344 16.316406 13.015625 15.960938 C 12.453125 15.433594 12.28125 15.320312 12.214844 15.433594 C 10.804688 17.566406 9.949219 20.003906 9.722656 22.503906 L 9.660156 23.238281 L 10.308594 23.164062 C 10.664062 23.125 11.652344 23.085938 12.507812 23.097656 C 14.339844 23.105469 15.320312 23.292969 16.402344 23.867188 C 17.652344 24.527344 18.246094 25.382812 18.246094 26.546875 C 18.246094 27.675781 17.71875 28.738281 16.5625 29.945312 C 15.722656 30.800781 14.945312 31.421875 13.757812 32.125 L 12.78125 32.71875 L 13.382812 33.40625 C 14.152344 34.296875 15.253906 35.246094 16.316406 35.953125 C 17.3125 36.609375 18.949219 37.429688 19.324219 37.457031 C 19.578125 37.476562 19.589844 37.457031 19.757812 36.675781 C 20.40625 33.722656 21.707031 31.53125 23.265625 30.753906 C 23.726562 30.515625 23.933594 30.46875 24.5 30.46875 C 25.0625 30.46875 25.269531 30.515625 25.75 30.753906 C 26.820312 31.296875 27.816406 32.59375 28.542969 34.402344 C 28.871094 35.238281 29.339844 36.914062 29.339844 37.269531 C 29.339844 37.570312 29.585938 37.542969 30.527344 37.117188 C 32.371094 36.308594 34.316406 34.882812 35.566406 33.433594 L 36.207031 32.699219 L 35.484375 32.285156 C 33.828125 31.34375 32.277344 30 31.523438 28.871094 C 30.140625 26.8125 30.5625 24.929688 32.644531 23.898438 C 33.816406 23.304688 34.523438 23.183594 36.769531 23.183594 C 37.832031 23.183594 38.839844 23.210938 39.007812 23.246094 L 39.328125 23.324219 L 39.261719 22.683594 C 39 19.957031 38.164062 17.492188 36.78125 15.433594 C 36.707031 15.320312 36.574219 15.40625 36.09375 15.855469 C 34.515625 17.3125 32.71875 18.375 31.222656 18.707031 C 30.515625 18.863281 29.585938 18.828125 29.023438 18.609375 C 28.289062 18.339844 27.628906 17.605469 27.355469 16.757812 C 26.847656 15.1875 27.246094 12.640625 28.355469 10.195312 L 28.675781 9.5 L 28.183594 9.355469 C 27.179688 9.074219 25.917969 8.933594 24.453125 8.953125 C 23.652344 8.953125 22.84375 8.980469 22.664062 9 Z M 25.976562 19.363281 C 27.328125 19.832031 28.363281 20.914062 28.785156 22.308594 C 28.957031 22.851562 28.984375 23.125 28.945312 23.886719 C 28.910156 24.707031 28.863281 24.894531 28.5625 25.53125 C 27.628906 27.480469 25.449219 28.515625 23.390625 27.976562 C 20.59375 27.253906 19.214844 24.261719 20.453125 21.648438 C 21.027344 20.445312 22.195312 19.515625 23.511719 19.214844 C 24.179688 19.0625 25.296875 19.128906 25.976562 19.363281 Z M 25.976562 19.363281 "/>
<path style=" stroke:none;fill-rule:nonzero;fill:rgb(0%,0%,0%);fill-opacity:1;" d="M 25.335938 20.050781 C 24.863281 20.277344 24.800781 20.953125 25.195312 21.355469 C 25.542969 21.707031 25.9375 21.714844 26.324219 21.386719 C 26.558594 21.1875 26.613281 21.074219 26.613281 20.773438 C 26.613281 20.117188 25.957031 19.738281 25.335938 20.050781 Z M 25.335938 20.050781 "/>
<path style=" stroke:none;fill-rule:nonzero;fill:rgb(0%,0%,0%);fill-opacity:1;" d="M 21.433594 20.773438 C 21.132812 21.085938 21.085938 21.40625 21.300781 21.808594 C 21.453125 22.117188 21.609375 22.195312 22.0625 22.195312 C 22.515625 22.195312 22.851562 21.847656 22.851562 21.394531 C 22.851562 20.945312 22.429688 20.5 22.007812 20.5 C 21.800781 20.5 21.621094 20.585938 21.433594 20.773438 Z M 21.433594 20.773438 "/>
<path style=" stroke:none;fill-rule:nonzero;fill:rgb(0%,0%,0%);fill-opacity:1;" d="M 24.199219 22.195312 C 22.890625 22.496094 22.628906 24.046875 23.726562 24.863281 C 24.09375 25.128906 24.914062 25.128906 25.269531 24.863281 C 25.75 24.507812 25.910156 24.199219 25.910156 23.625 C 25.910156 23.210938 25.863281 23.011719 25.691406 22.777344 C 25.34375 22.296875 24.761719 22.0625 24.199219 22.195312 Z M 24.199219 22.195312 "/>
<path style=" stroke:none;fill-rule:nonzero;fill:rgb(0%,0%,0%);fill-opacity:1;" d="M 27.226562 23.4375 C 26.925781 23.613281 26.8125 23.820312 26.800781 24.199219 C 26.800781 24.976562 27.742188 25.324219 28.25 24.722656 C 28.550781 24.367188 28.5625 23.980469 28.289062 23.652344 C 28.042969 23.371094 27.507812 23.265625 27.226562 23.4375 Z M 27.226562 23.4375 "/>
<path style=" stroke:none;fill-rule:nonzero;fill:rgb(0%,0%,0%);fill-opacity:1;" d="M 21.199219 24.167969 C 20.679688 24.375 20.511719 25.195312 20.90625 25.550781 C 21.199219 25.824219 21.507812 25.898438 21.828125 25.757812 C 22.109375 25.644531 22.382812 25.25 22.382812 24.96875 C 22.382812 24.667969 22.101562 24.28125 21.808594 24.179688 C 21.460938 24.054688 21.460938 24.054688 21.199219 24.167969 Z M 21.199219 24.167969 "/>
<path style=" stroke:none;fill-rule:nonzero;fill:rgb(0%,0%,0%);fill-opacity:1;" d="M 24.5625 26.003906 C 24.328125 26.199219 24.261719 26.324219 24.261719 26.605469 C 24.261719 27.234375 24.753906 27.609375 25.363281 27.441406 C 25.703125 27.355469 25.957031 26.972656 25.957031 26.578125 C 25.957031 26.238281 25.589844 25.863281 25.195312 25.804688 C 24.929688 25.757812 24.808594 25.796875 24.5625 26.003906 Z M 24.5625 26.003906 "/>
</g>
</svg>
