<?xml version="1.0" encoding="UTF-8"?>
<svg xmlns="http://www.w3.org/2000/svg" xmlns:xlink="http://www.w3.org/1999/xlink" width="16px" height="16px" viewBox="0 0 16 16" version="1.1">
<g id="surface1">
<path style=" stroke:none;fill-rule:nonzero;fill:rgb(0%,0%,0%);fill-opacity:1;" d="M 7.273438 0.296875 C 5.933594 0.453125 4.625 0.976562 3.546875 1.792969 C 1.539062 3.320312 0.417969 5.675781 0.511719 8.183594 C 0.535156 8.796875 0.59375 9.207031 0.734375 9.78125 C 0.871094 10.339844 1.019531 10.726562 1.300781 11.300781 C 2.128906 12.980469 3.535156 14.292969 5.261719 14.996094 C 6.226562 15.390625 7.105469 15.5625 8.183594 15.558594 C 9.414062 15.554688 10.484375 15.308594 11.539062 14.78125 C 13.003906 14.050781 14.125 12.972656 14.902344 11.539062 C 15.339844 10.738281 15.605469 9.929688 15.753906 8.933594 C 15.832031 8.4375 15.832031 7.398438 15.753906 6.882812 C 15.519531 5.230469 14.808594 3.773438 13.671875 2.59375 C 12.007812 0.863281 9.664062 0.0273438 7.273438 0.296875 Z M 9.195312 2.597656 C 10.046875 2.773438 10.71875 3.074219 11.402344 3.582031 C 13.363281 5.046875 14.085938 7.636719 13.175781 9.921875 C 12.488281 11.644531 10.941406 12.902344 9.101562 13.230469 C 8.820312 13.28125 8.59375 13.300781 8.183594 13.300781 C 7.578125 13.304688 7.3125 13.273438 6.777344 13.132812 C 4.628906 12.566406 3.039062 10.722656 2.785156 8.496094 C 2.738281 8.050781 2.765625 7.320312 2.851562 6.882812 C 3.300781 4.609375 5.066406 2.925781 7.382812 2.554688 C 7.792969 2.488281 8.785156 2.515625 9.195312 2.597656 Z M 9.195312 2.597656 "/>
<path style=" stroke:none;fill-rule:nonzero;fill:rgb(0%,0%,0%);fill-opacity:1;" d="M 7.554688 3 C 7.359375 3.023438 6.816406 3.136719 6.792969 3.164062 C 6.78125 3.175781 6.816406 3.292969 6.882812 3.421875 C 7.136719 3.984375 7.273438 4.53125 7.273438 5.023438 C 7.273438 5.527344 7.167969 5.816406 6.910156 6.046875 C 6.46875 6.433594 5.707031 6.316406 4.859375 5.734375 C 4.703125 5.628906 4.46875 5.4375 4.339844 5.320312 C 4.152344 5.144531 4.09375 5.105469 4.070312 5.144531 C 3.601562 5.855469 3.316406 6.667969 3.242188 7.5 L 3.21875 7.746094 L 3.4375 7.722656 C 3.554688 7.707031 3.882812 7.695312 4.167969 7.699219 C 4.78125 7.703125 5.105469 7.765625 5.46875 7.957031 C 5.882812 8.175781 6.082031 8.460938 6.082031 8.847656 C 6.082031 9.226562 5.90625 9.578125 5.519531 9.980469 C 5.242188 10.265625 4.980469 10.472656 4.585938 10.707031 L 4.261719 10.90625 L 4.460938 11.136719 C 4.71875 11.433594 5.085938 11.75 5.4375 11.984375 C 5.769531 12.203125 6.316406 12.476562 6.441406 12.484375 C 6.527344 12.492188 6.53125 12.484375 6.585938 12.226562 C 6.800781 11.242188 7.234375 10.511719 7.753906 10.25 C 7.910156 10.171875 7.976562 10.15625 8.167969 10.15625 C 8.355469 10.15625 8.421875 10.171875 8.582031 10.25 C 8.941406 10.433594 9.273438 10.863281 9.515625 11.46875 C 9.625 11.746094 9.78125 12.304688 9.78125 12.421875 C 9.78125 12.523438 9.863281 12.515625 10.175781 12.371094 C 10.789062 12.101562 11.4375 11.628906 11.855469 11.144531 L 12.070312 10.898438 L 11.828125 10.761719 C 11.277344 10.449219 10.757812 10 10.507812 9.625 C 10.046875 8.9375 10.1875 8.308594 10.882812 7.964844 C 11.273438 7.769531 11.507812 7.726562 12.257812 7.726562 C 12.609375 7.726562 12.945312 7.738281 13.003906 7.75 L 13.109375 7.773438 L 13.085938 7.5625 C 13 6.652344 12.722656 5.832031 12.261719 5.144531 C 12.234375 5.105469 12.191406 5.136719 12.03125 5.285156 C 11.503906 5.769531 10.90625 6.125 10.40625 6.234375 C 10.171875 6.289062 9.863281 6.277344 9.675781 6.203125 C 9.429688 6.113281 9.210938 5.867188 9.117188 5.585938 C 8.949219 5.0625 9.082031 4.214844 9.453125 3.398438 L 9.558594 3.167969 L 9.394531 3.117188 C 9.058594 3.023438 8.640625 2.976562 8.152344 2.984375 C 7.882812 2.984375 7.613281 2.992188 7.554688 3 Z M 8.660156 6.453125 C 9.109375 6.609375 9.453125 6.972656 9.59375 7.4375 C 9.652344 7.617188 9.660156 7.707031 9.648438 7.960938 C 9.636719 8.234375 9.621094 8.296875 9.519531 8.511719 C 9.210938 9.160156 8.484375 9.503906 7.796875 9.324219 C 6.863281 9.085938 6.40625 8.085938 6.816406 7.214844 C 7.007812 6.816406 7.398438 6.503906 7.835938 6.40625 C 8.058594 6.355469 8.433594 6.375 8.660156 6.453125 Z M 8.660156 6.453125 "/>
<path style=" stroke:none;fill-rule:nonzero;fill:rgb(0%,0%,0%);fill-opacity:1;" d="M 8.445312 6.683594 C 8.289062 6.757812 8.265625 6.984375 8.398438 7.117188 C 8.515625 7.234375 8.644531 7.238281 8.773438 7.128906 C 8.851562 7.0625 8.871094 7.023438 8.871094 6.925781 C 8.871094 6.707031 8.652344 6.578125 8.445312 6.683594 Z M 8.445312 6.683594 "/>
<path style=" stroke:none;fill-rule:nonzero;fill:rgb(0%,0%,0%);fill-opacity:1;" d="M 7.144531 6.925781 C 7.042969 7.027344 7.027344 7.136719 7.101562 7.269531 C 7.152344 7.371094 7.203125 7.398438 7.355469 7.398438 C 7.503906 7.398438 7.617188 7.28125 7.617188 7.132812 C 7.617188 6.980469 7.476562 6.832031 7.335938 6.832031 C 7.265625 6.832031 7.207031 6.863281 7.144531 6.925781 Z M 7.144531 6.925781 "/>
<path style=" stroke:none;fill-rule:nonzero;fill:rgb(0%,0%,0%);fill-opacity:1;" d="M 8.066406 7.398438 C 7.628906 7.5 7.542969 8.015625 7.910156 8.289062 C 8.03125 8.375 8.304688 8.375 8.421875 8.289062 C 8.582031 8.167969 8.636719 8.066406 8.636719 7.875 C 8.636719 7.738281 8.621094 7.671875 8.5625 7.59375 C 8.449219 7.433594 8.253906 7.355469 8.066406 7.398438 Z M 8.066406 7.398438 "/>
<path style=" stroke:none;fill-rule:nonzero;fill:rgb(0%,0%,0%);fill-opacity:1;" d="M 9.074219 7.8125 C 8.976562 7.871094 8.9375 7.941406 8.933594 8.066406 C 8.933594 8.324219 9.246094 8.441406 9.417969 8.242188 C 9.515625 8.121094 9.519531 7.992188 9.429688 7.882812 C 9.347656 7.789062 9.167969 7.753906 9.074219 7.8125 Z M 9.074219 7.8125 "/>
<path style=" stroke:none;fill-rule:nonzero;fill:rgb(0%,0%,0%);fill-opacity:1;" d="M 7.066406 8.054688 C 6.894531 8.125 6.835938 8.398438 6.96875 8.515625 C 7.066406 8.609375 7.167969 8.632812 7.277344 8.585938 C 7.371094 8.546875 7.460938 8.417969 7.460938 8.324219 C 7.460938 8.222656 7.367188 8.09375 7.269531 8.058594 C 7.152344 8.019531 7.152344 8.019531 7.066406 8.054688 Z M 7.066406 8.054688 "/>
<path style=" stroke:none;fill-rule:nonzero;fill:rgb(0%,0%,0%);fill-opacity:1;" d="M 8.1875 8.667969 C 8.109375 8.734375 8.085938 8.773438 8.085938 8.867188 C 8.085938 9.078125 8.25 9.203125 8.453125 9.148438 C 8.566406 9.117188 8.652344 8.992188 8.652344 8.859375 C 8.652344 8.746094 8.53125 8.621094 8.398438 8.601562 C 8.308594 8.585938 8.269531 8.597656 8.1875 8.667969 Z M 8.1875 8.667969 "/>
</g>
</svg>
